<mxfile host="app.diagrams.net" agent="Mozilla/5.0 (Windows NT 10.0; Win64; x64) AppleWebKit/537.36 (KHTML, like Gecko) Chrome/133.0.0.0 Safari/537.36" version="26.2.12">
  <diagram name="Page-1" id="PCBjDSlh5hPUt1LqwWf6">
    <mxGraphModel dx="1142" dy="697" grid="1" gridSize="10" guides="1" tooltips="1" connect="1" arrows="1" fold="1" page="1" pageScale="1" pageWidth="850" pageHeight="1100" math="0" shadow="0">
      <root>
        <mxCell id="0" />
        <mxCell id="1" parent="0" />
        <mxCell id="QeGriQj4Znc-oM61X2ca-8" value="CAR" style="swimlane;whiteSpace=wrap;html=1;" parent="1" vertex="1">
          <mxGeometry x="20" y="210" width="230" height="120" as="geometry" />
        </mxCell>
        <mxCell id="QeGriQj4Znc-oM61X2ca-9" value="CAN network" style="rounded=1;whiteSpace=wrap;html=1;" parent="QeGriQj4Znc-oM61X2ca-8" vertex="1">
          <mxGeometry x="50" y="40" width="100" height="60" as="geometry" />
        </mxCell>
        <mxCell id="QeGriQj4Znc-oM61X2ca-19" value="" style="edgeStyle=orthogonalEdgeStyle;rounded=0;orthogonalLoop=1;jettySize=auto;html=1;" parent="1" source="QeGriQj4Znc-oM61X2ca-10" target="QeGriQj4Znc-oM61X2ca-18" edge="1">
          <mxGeometry relative="1" as="geometry" />
        </mxCell>
        <mxCell id="QeGriQj4Znc-oM61X2ca-10" value="CAN connector" style="rounded=1;whiteSpace=wrap;html=1;" parent="1" vertex="1">
          <mxGeometry x="220" y="265" width="60" height="30" as="geometry" />
        </mxCell>
        <mxCell id="QeGriQj4Znc-oM61X2ca-11" style="edgeStyle=orthogonalEdgeStyle;rounded=0;orthogonalLoop=1;jettySize=auto;html=1;exitX=1;exitY=0.5;exitDx=0;exitDy=0;entryX=0;entryY=0.5;entryDx=0;entryDy=0;" parent="1" source="QeGriQj4Znc-oM61X2ca-9" target="QeGriQj4Znc-oM61X2ca-10" edge="1">
          <mxGeometry relative="1" as="geometry" />
        </mxCell>
        <mxCell id="QeGriQj4Znc-oM61X2ca-16" value="CAN Analiser&amp;nbsp;" style="swimlane;whiteSpace=wrap;html=1;" parent="1" vertex="1">
          <mxGeometry x="410" y="120" width="620" height="500" as="geometry">
            <mxRectangle x="400" y="120" width="120" height="30" as="alternateBounds" />
          </mxGeometry>
        </mxCell>
        <mxCell id="QeGriQj4Znc-oM61X2ca-30" style="edgeStyle=orthogonalEdgeStyle;rounded=0;orthogonalLoop=1;jettySize=auto;html=1;exitX=1;exitY=0.5;exitDx=0;exitDy=0;entryX=0;entryY=0.5;entryDx=0;entryDy=0;" parent="QeGriQj4Znc-oM61X2ca-16" source="QeGriQj4Znc-oM61X2ca-18" target="QeGriQj4Znc-oM61X2ca-28" edge="1">
          <mxGeometry relative="1" as="geometry" />
        </mxCell>
        <mxCell id="QeGriQj4Znc-oM61X2ca-18" value="CAN connector" style="rounded=1;whiteSpace=wrap;html=1;" parent="QeGriQj4Znc-oM61X2ca-16" vertex="1">
          <mxGeometry x="-30" y="145" width="60" height="30" as="geometry" />
        </mxCell>
        <mxCell id="QeGriQj4Znc-oM61X2ca-25" value="Car Identification" style="swimlane;whiteSpace=wrap;html=1;" parent="QeGriQj4Znc-oM61X2ca-16" vertex="1">
          <mxGeometry x="100" y="230" width="200" height="200" as="geometry" />
        </mxCell>
        <mxCell id="BZgewqnjbhHs28lFf4NJ-4" style="edgeStyle=orthogonalEdgeStyle;rounded=0;orthogonalLoop=1;jettySize=auto;html=1;exitX=1;exitY=0.5;exitDx=0;exitDy=0;entryX=1;entryY=0.5;entryDx=0;entryDy=0;" edge="1" parent="QeGriQj4Znc-oM61X2ca-25" source="BZgewqnjbhHs28lFf4NJ-1" target="BZgewqnjbhHs28lFf4NJ-3">
          <mxGeometry relative="1" as="geometry" />
        </mxCell>
        <mxCell id="BZgewqnjbhHs28lFf4NJ-1" value="Identify car based on decoded data" style="rounded=1;whiteSpace=wrap;html=1;" vertex="1" parent="QeGriQj4Znc-oM61X2ca-25">
          <mxGeometry x="40" y="40" width="120" height="60" as="geometry" />
        </mxCell>
        <mxCell id="BZgewqnjbhHs28lFf4NJ-3" value="Gather the characteristics of the specific car" style="rounded=1;whiteSpace=wrap;html=1;" vertex="1" parent="QeGriQj4Znc-oM61X2ca-25">
          <mxGeometry x="40" y="120" width="120" height="60" as="geometry" />
        </mxCell>
        <mxCell id="QeGriQj4Znc-oM61X2ca-27" value="CAN network sampling" style="swimlane;whiteSpace=wrap;html=1;" parent="QeGriQj4Znc-oM61X2ca-16" vertex="1">
          <mxGeometry x="100" y="50" width="230" height="130" as="geometry" />
        </mxCell>
        <mxCell id="QeGriQj4Znc-oM61X2ca-32" style="edgeStyle=orthogonalEdgeStyle;rounded=0;orthogonalLoop=1;jettySize=auto;html=1;exitX=1;exitY=0.5;exitDx=0;exitDy=0;entryX=0;entryY=0.5;entryDx=0;entryDy=0;" parent="QeGriQj4Znc-oM61X2ca-27" source="QeGriQj4Znc-oM61X2ca-28" target="QeGriQj4Znc-oM61X2ca-31" edge="1">
          <mxGeometry relative="1" as="geometry">
            <Array as="points">
              <mxPoint x="210" y="45" />
              <mxPoint x="210" y="80" />
              <mxPoint x="20" y="80" />
              <mxPoint x="20" y="105" />
            </Array>
          </mxGeometry>
        </mxCell>
        <mxCell id="QeGriQj4Znc-oM61X2ca-28" value="CAN network listening" style="rounded=1;whiteSpace=wrap;html=1;" parent="QeGriQj4Znc-oM61X2ca-27" vertex="1">
          <mxGeometry x="10" y="30" width="100" height="30" as="geometry" />
        </mxCell>
        <mxCell id="QeGriQj4Znc-oM61X2ca-31" value="CAN decoding and saving" style="rounded=1;whiteSpace=wrap;html=1;" parent="QeGriQj4Znc-oM61X2ca-27" vertex="1">
          <mxGeometry x="110" y="90" width="100" height="30" as="geometry" />
        </mxCell>
        <mxCell id="BZgewqnjbhHs28lFf4NJ-2" style="edgeStyle=orthogonalEdgeStyle;rounded=0;orthogonalLoop=1;jettySize=auto;html=1;exitX=1;exitY=0.5;exitDx=0;exitDy=0;entryX=0;entryY=0.5;entryDx=0;entryDy=0;" edge="1" parent="QeGriQj4Znc-oM61X2ca-16" source="QeGriQj4Znc-oM61X2ca-33" target="BZgewqnjbhHs28lFf4NJ-1">
          <mxGeometry relative="1" as="geometry">
            <Array as="points">
              <mxPoint x="520" y="100" />
              <mxPoint x="520" y="200" />
              <mxPoint x="60" y="200" />
              <mxPoint x="60" y="300" />
            </Array>
          </mxGeometry>
        </mxCell>
        <mxCell id="QeGriQj4Znc-oM61X2ca-33" value="Saved file" style="rounded=1;whiteSpace=wrap;html=1;" parent="QeGriQj4Znc-oM61X2ca-16" vertex="1">
          <mxGeometry x="380" y="70" width="120" height="60" as="geometry" />
        </mxCell>
        <mxCell id="QeGriQj4Znc-oM61X2ca-34" style="edgeStyle=orthogonalEdgeStyle;rounded=0;orthogonalLoop=1;jettySize=auto;html=1;exitX=1;exitY=0.5;exitDx=0;exitDy=0;entryX=0;entryY=0.5;entryDx=0;entryDy=0;" parent="QeGriQj4Znc-oM61X2ca-16" source="QeGriQj4Znc-oM61X2ca-31" target="QeGriQj4Znc-oM61X2ca-33" edge="1">
          <mxGeometry relative="1" as="geometry" />
        </mxCell>
        <mxCell id="BZgewqnjbhHs28lFf4NJ-5" value="Car probing" style="swimlane;whiteSpace=wrap;html=1;" vertex="1" parent="QeGriQj4Znc-oM61X2ca-16">
          <mxGeometry x="380" y="230" width="210" height="200" as="geometry" />
        </mxCell>
        <mxCell id="BZgewqnjbhHs28lFf4NJ-12" style="edgeStyle=orthogonalEdgeStyle;rounded=0;orthogonalLoop=1;jettySize=auto;html=1;exitX=1;exitY=0.5;exitDx=0;exitDy=0;entryX=1;entryY=0.5;entryDx=0;entryDy=0;" edge="1" parent="BZgewqnjbhHs28lFf4NJ-5" source="BZgewqnjbhHs28lFf4NJ-9" target="BZgewqnjbhHs28lFf4NJ-11">
          <mxGeometry relative="1" as="geometry" />
        </mxCell>
        <mxCell id="BZgewqnjbhHs28lFf4NJ-9" value="Based on the characteristics, probe the different devices" style="rounded=1;whiteSpace=wrap;html=1;" vertex="1" parent="BZgewqnjbhHs28lFf4NJ-5">
          <mxGeometry x="40" y="40" width="120" height="60" as="geometry" />
        </mxCell>
        <mxCell id="BZgewqnjbhHs28lFf4NJ-11" value="Collect and analyze responses." style="rounded=1;whiteSpace=wrap;html=1;" vertex="1" parent="BZgewqnjbhHs28lFf4NJ-5">
          <mxGeometry x="40" y="120" width="120" height="60" as="geometry" />
        </mxCell>
        <mxCell id="BZgewqnjbhHs28lFf4NJ-10" style="edgeStyle=orthogonalEdgeStyle;rounded=0;orthogonalLoop=1;jettySize=auto;html=1;exitX=0;exitY=0.5;exitDx=0;exitDy=0;entryX=0;entryY=0.5;entryDx=0;entryDy=0;" edge="1" parent="QeGriQj4Znc-oM61X2ca-16" source="BZgewqnjbhHs28lFf4NJ-3" target="BZgewqnjbhHs28lFf4NJ-9">
          <mxGeometry relative="1" as="geometry">
            <Array as="points">
              <mxPoint x="60" y="380" />
              <mxPoint x="60" y="470" />
              <mxPoint x="340" y="470" />
              <mxPoint x="340" y="300" />
            </Array>
          </mxGeometry>
        </mxCell>
        <mxCell id="BZgewqnjbhHs28lFf4NJ-17" value="Create a report based on the findings" style="rounded=1;whiteSpace=wrap;html=1;" vertex="1" parent="1">
          <mxGeometry x="1060" y="560" width="120" height="60" as="geometry" />
        </mxCell>
        <mxCell id="BZgewqnjbhHs28lFf4NJ-19" style="edgeStyle=orthogonalEdgeStyle;rounded=0;orthogonalLoop=1;jettySize=auto;html=1;exitX=0.5;exitY=1;exitDx=0;exitDy=0;entryX=0;entryY=0.5;entryDx=0;entryDy=0;" edge="1" parent="1" source="BZgewqnjbhHs28lFf4NJ-5" target="BZgewqnjbhHs28lFf4NJ-17">
          <mxGeometry relative="1" as="geometry" />
        </mxCell>
      </root>
    </mxGraphModel>
  </diagram>
</mxfile>
